<svg width="42" height="42" viewBox="0 0 42 42" fill="none" xmlns="http://www.w3.org/2000/svg">
<path d="M33.3929 0H7.85714C3.51776 0 0 3.58172 0 8V34C0 38.4183 3.51776 42 7.85714 42H33.3929C37.7322 42 41.25 38.4183 41.25 34V8C41.25 3.58172 37.7322 0 33.3929 0Z" fill="#F7941E"/>
<path d="M29.0125 8.2998H12.1314C11.9416 8.30007 11.7597 8.37696 11.6255 8.51362C11.4912 8.65027 11.4157 8.83554 11.4155 9.0288V30.3218C11.4156 30.5154 11.4912 30.701 11.6256 30.8378L13.7363 32.9868C13.8707 33.1236 14.053 33.2004 14.2431 33.2004C14.4331 33.2004 14.6154 33.1236 14.7498 32.9868L16.3547 31.3528L17.9585 32.9858C18.025 33.0537 18.104 33.1075 18.191 33.1442C18.2779 33.1809 18.3711 33.1998 18.4653 33.1998C18.5594 33.1998 18.6527 33.1809 18.7396 33.1442C18.8266 33.1075 18.9056 33.0537 18.9721 32.9858L20.5759 31.3528L22.1798 32.9858C22.2463 33.0537 22.3252 33.1075 22.4122 33.1442C22.4992 33.1809 22.5924 33.1998 22.6865 33.1998C22.7807 33.1998 22.8739 33.1809 22.9609 33.1442C23.0478 33.1075 23.1268 33.0537 23.1933 32.9858L24.7972 31.3528L26.401 32.9858C26.4675 33.0537 26.5465 33.1075 26.6335 33.1442C26.7204 33.1809 26.8136 33.1998 26.9078 33.1998C27.0019 33.1998 27.0952 33.1809 27.1821 33.1442C27.2691 33.1075 27.3481 33.0537 27.4146 32.9858L29.5154 30.8378C29.582 30.7701 29.6349 30.6897 29.6709 30.6011C29.707 30.5126 29.7256 30.4177 29.7256 30.3218V9.0288C29.7256 8.83598 29.6505 8.65101 29.5169 8.51438C29.3833 8.37775 29.2019 8.3006 29.0125 8.2998V8.2998ZM19.854 13.7788V12.9358C19.854 12.7423 19.9295 12.5568 20.0639 12.42C20.1983 12.2832 20.3805 12.2063 20.5705 12.2063C20.7605 12.2063 20.9428 12.2832 21.0771 12.42C21.2115 12.5568 21.287 12.7423 21.287 12.9358V13.7698H22.1051C22.2951 13.7698 22.4774 13.8467 22.6117 13.9835C22.7461 14.1203 22.8216 14.3058 22.8216 14.4993C22.8216 14.6928 22.7461 14.8783 22.6117 15.0151C22.4774 15.1519 22.2951 15.2288 22.1051 15.2288H20.0593C19.8422 15.2288 19.634 15.3166 19.4805 15.4729C19.3269 15.6292 19.2407 15.8412 19.2407 16.0623C19.2407 16.2834 19.3269 16.4954 19.4805 16.6517C19.634 16.808 19.8422 16.8958 20.0593 16.8958H21.0827C21.6629 16.8945 22.2212 17.1213 22.6411 17.5289C23.061 17.9366 23.3101 18.4936 23.3365 19.0837C23.3629 19.6738 23.1644 20.2515 22.7825 20.6963C22.4007 21.1411 21.8649 21.4185 21.287 21.4708V22.3138C21.287 22.5073 21.2115 22.6928 21.0771 22.8296C20.9428 22.9664 20.7605 23.0433 20.5705 23.0433C20.3805 23.0433 20.1983 22.9664 20.0639 22.8296C19.9295 22.6928 19.854 22.5073 19.854 22.3138V21.4808H19.0359C18.8459 21.4808 18.6637 21.4039 18.5293 21.2671C18.3949 21.1303 18.3194 20.9448 18.3194 20.7513C18.3194 20.5578 18.3949 20.3723 18.5293 20.2355C18.6637 20.0987 18.8459 20.0218 19.0359 20.0218H21.0827C21.2997 20.0218 21.5078 19.934 21.6612 19.7778C21.8146 19.6216 21.9008 19.4097 21.9008 19.1888C21.9008 18.9679 21.8146 18.756 21.6612 18.5998C21.5078 18.4436 21.2997 18.3558 21.0827 18.3558H20.0593C19.479 18.3574 18.9205 18.1308 18.5004 17.7232C18.0803 17.3156 17.831 16.7586 17.8045 16.1684C17.778 15.5782 17.9764 15.0004 18.3583 14.5555C18.7402 14.1106 19.276 13.8331 19.854 13.7808V13.7788ZM24.4082 26.9488H16.7338C16.5437 26.9488 16.3615 26.8719 16.2271 26.7351C16.0928 26.5983 16.0173 26.4128 16.0173 26.2193C16.0173 26.0258 16.0928 25.8403 16.2271 25.7035C16.3615 25.5667 16.5437 25.4898 16.7338 25.4898H24.4082C24.5983 25.4898 24.7805 25.5667 24.9149 25.7035C25.0492 25.8403 25.1247 26.0258 25.1247 26.2193C25.1247 26.4128 25.0492 26.5983 24.9149 26.7351C24.7805 26.8719 24.5983 26.9488 24.4082 26.9488Z" fill="white"/>
</svg>
