<svg width="42" height="42" viewBox="0 0 42 42" fill="none" xmlns="http://www.w3.org/2000/svg">
<path d="M7.85714 0H33.3929C35.4767 0 37.4752 0.842855 38.9487 2.34315C40.4222 3.84344 41.25 5.87827 41.25 8V34C41.25 36.1217 40.4222 38.1566 38.9487 39.6569C37.4752 41.1571 35.4767 42 33.3929 42H7.85714C5.7733 42 3.7748 41.1571 2.3013 39.6569C0.827804 38.1566 0 36.1217 0 34V8C0 5.87827 0.827804 3.84344 2.3013 2.34315C3.7748 0.842855 5.7733 0 7.85714 0V0Z" fill="#1067B0"/>
<path d="M25.9629 22.1389L23.7295 21.6149C24.6743 20.8025 25.4176 19.7746 25.899 18.6149C26.3428 18.5329 26.7429 18.2915 27.0266 17.9346C27.3103 17.5776 27.4587 17.1288 27.4449 16.6699C27.552 15.4449 27.1237 14.9399 26.5718 14.7379C26.5571 14.3459 26.504 13.9829 26.4824 13.6379C26.232 9.76887 24.1606 8.06187 20.8105 8.40287C20.3775 8.45823 19.9393 8.45823 19.5062 8.40287C18.6293 8.35741 17.7559 8.54633 16.9728 8.95085C16.1898 9.35538 15.5243 9.96145 15.0424 10.7089C14.3447 11.936 14.0917 13.3734 14.3274 14.7709C13.8226 14.9949 13.4435 15.5099 13.5486 16.6659C13.5361 17.1118 13.6762 17.5482 13.9449 17.9005C14.2137 18.2527 14.5944 18.4989 15.0218 18.5969C15.5162 19.7641 16.2704 20.7983 17.2247 21.6179L15.009 22.1369C13.5909 22.4194 12.3094 23.1846 11.3749 24.3067C10.4404 25.4289 9.90848 26.8413 9.86652 28.3119V31.8119C9.88998 32.3132 10.1059 32.7851 10.4678 33.1259C10.8297 33.4667 11.3086 33.6491 11.8013 33.6339H29.1745C29.6662 33.6488 30.1439 33.4662 30.5045 33.1255C30.865 32.7847 31.0795 32.3132 31.1014 31.8129V28.3129C31.0596 26.8429 30.5282 25.4311 29.5945 24.3093C28.6607 23.1874 27.3801 22.422 25.9629 22.1389ZM13.5417 32.5299H11.8013C11.6095 32.5333 11.4238 32.4609 11.2832 32.328C11.1426 32.1951 11.0579 32.0119 11.0471 31.8169V28.3169C11.0611 27.4322 11.2978 26.5659 11.7346 25.801C12.1714 25.0361 12.7936 24.398 13.5417 23.9479V32.5299ZM15.4952 15.3699C15.4953 15.2071 15.5212 15.0453 15.5718 14.8909C15.6955 14.5194 15.8603 14.1635 16.0629 13.8299C16.3792 13.3179 16.8681 12.941 17.4379 12.7699L17.4899 12.7529C17.5877 12.7205 17.693 12.7201 17.7909 12.7519C17.8889 12.7836 17.9746 12.8459 18.036 12.9299C18.0929 13.0111 18.1192 13.1105 18.11 13.2099C18.1008 13.3092 18.0567 13.4019 17.9859 13.4709C17.9584 13.4989 17.9309 13.5259 17.9024 13.5529C17.8598 13.5928 17.8317 13.6463 17.8228 13.7046C17.8139 13.7629 17.8246 13.8226 17.8533 13.8739C17.8847 13.9268 17.931 13.9689 17.9861 13.9947C18.0413 14.0206 18.1028 14.029 18.1627 14.0189C19.9603 13.7828 21.6721 13.0956 23.1441 12.0189C23.3549 11.8516 23.6179 11.7675 23.8847 11.7818C24.1515 11.7961 24.4044 11.908 24.5967 12.0969C24.9538 12.4558 25.1909 12.9201 25.2744 13.4239C25.3723 14.0676 25.4186 14.7185 25.4129 15.3699C25.4129 18.2699 23.203 21.7699 20.4579 21.7699C17.7129 21.7699 15.4942 18.2699 15.4942 15.3699H15.4952ZM20.9225 32.5299H20.069L16.0079 23.0569L18.5447 22.4569C19.1439 22.7314 19.7931 22.8745 20.4501 22.8769C21.1272 22.8756 21.7965 22.7291 22.4144 22.4469L24.9945 23.0609L20.9225 32.5299ZM29.9219 31.8169C29.9127 32.0113 29.8296 32.1945 29.6901 32.3276C29.5505 32.4607 29.3656 32.5332 29.1745 32.5299H27.4704V23.9709C28.2077 24.4234 28.8195 25.0597 29.2483 25.8197C29.677 26.5797 29.9085 27.4385 29.9209 28.3149V31.8149L29.9219 31.8169Z" fill="white"/>
<path d="M20.4763 28.0348C20.9981 28.0348 21.4211 27.6041 21.4211 27.0728C21.4211 26.5415 20.9981 26.1108 20.4763 26.1108C19.9544 26.1108 19.5314 26.5415 19.5314 27.0728C19.5314 27.6041 19.9544 28.0348 20.4763 28.0348Z" fill="white"/>
<path d="M20.4763 29.508C20.9981 29.508 21.4211 29.0773 21.4211 28.546C21.4211 28.0147 20.9981 27.584 20.4763 27.584C19.9544 27.584 19.5314 28.0147 19.5314 28.546C19.5314 29.0773 19.9544 29.508 20.4763 29.508Z" fill="white"/>
<path d="M23.2835 22.6059L21.5815 23.1059C21.5549 23.1129 21.5294 23.1189 21.5019 23.1239C21.2227 22.8609 20.8564 22.7148 20.4761 22.7148C20.0957 22.7148 19.7294 22.8609 19.4502 23.1239C19.4237 23.1239 19.3972 23.1129 19.3716 23.1059L17.6755 22.6059C17.5583 22.5717 17.4349 22.566 17.3152 22.5893C17.1955 22.6126 17.0829 22.6643 16.9864 22.7401C16.8899 22.8159 16.8123 22.9138 16.7599 23.0258C16.7074 23.1378 16.6816 23.2608 16.6845 23.3849V25.3499C16.6815 25.4742 16.7074 25.5974 16.7599 25.7096C16.8125 25.8218 16.8903 25.9199 16.987 25.9957C17.0837 26.0716 17.1966 26.1232 17.3166 26.1464C17.4365 26.1695 17.5602 26.1635 17.6774 26.1289L19.4453 25.6029C19.7239 25.8715 20.0929 26.0212 20.4765 26.0212C20.8602 26.0212 21.2292 25.8715 21.5078 25.6029L23.2835 26.1289C23.4011 26.1628 23.5249 26.1683 23.6449 26.145C23.765 26.1217 23.8781 26.0701 23.9752 25.9945C24.0722 25.9189 24.1506 25.8212 24.2041 25.7093C24.2576 25.5974 24.2848 25.4743 24.2833 25.3499V23.3839C24.2846 23.2595 24.2574 23.1366 24.2038 23.0248C24.1502 22.913 24.0718 22.8155 23.9748 22.74C23.8777 22.6645 23.7647 22.613 23.6447 22.5897C23.5247 22.5665 23.401 22.572 23.2835 22.6059Z" fill="white"/>
</svg>
